<?xml version="1.0" standalone="no"?>
<!DOCTYPE svg PUBLIC "-//W3C//DTD SVG 20010904//EN"
 "http://www.w3.org/TR/2001/REC-SVG-20010904/DTD/svg10.dtd">
<svg version="1.0" xmlns="http://www.w3.org/2000/svg"
 width="220.000000pt" height="220.000000pt" viewBox="0 0 220.000000 220.000000"
 preserveAspectRatio="xMidYMid meet">

<g transform="translate(0.000000,220.000000) scale(0.100000,-0.100000)"
fill="#000000" stroke="none">
<path d="M375 1357 c-26 -26 -40 -32 -74 -32 -31 0 -47 -7 -69 -28 -27 -27
-27 -29 -30 -179 -4 -171 -2 -184 32 -221 19 -21 34 -27 67 -27 33 0 47 -6 69
-30 36 -39 86 -41 127 -6 24 21 29 33 33 93 l5 68 155 0 155 0 5 -68 c4 -60 9
-72 33 -93 41 -35 91 -33 127 6 22 24 37 30 68 30 29 0 46 7 66 26 l26 27 0
173 c0 168 -1 174 -24 201 -19 22 -32 28 -66 28 -35 0 -49 6 -75 32 -38 38
-66 41 -112 13 -35 -21 -41 -37 -45 -115 l-3 -50 -157 -3 -158 -3 0 55 c0 67
-13 97 -50 119 -42 25 -68 21 -105 -16z m95 -46 c6 -12 10 -101 10 -219 0
-185 -1 -200 -20 -217 -24 -22 -47 -14 -60 20 -13 34 -13 376 0 409 12 32 54
36 70 7z m498 7 c9 -9 12 -73 12 -225 0 -200 -1 -213 -19 -223 -25 -13 -27
-13 -45 6 -14 13 -16 47 -16 215 0 119 4 208 10 220 12 21 40 25 58 7z m-640
-60 c8 -8 12 -58 12 -159 0 -121 -3 -150 -16 -163 -18 -19 -20 -19 -45 -6 -17
10 -19 23 -19 163 0 156 5 177 40 177 9 0 21 -5 28 -12z m780 0 c8 -8 12 -58
12 -159 0 -121 -3 -150 -16 -163 -18 -19 -20 -19 -45 -6 -17 10 -19 23 -19
163 0 156 5 177 40 177 9 0 21 -5 28 -12z m-260 -160 l-3 -43 -155 0 -155 0
-3 43 -3 42 161 0 161 0 -3 -42z"/>
<path d="M1260 1100 c0 -161 3 -291 6 -288 6 7 5 570 -1 577 -3 2 -5 -128 -5
-289z"/>
<path d="M1440 1270 l0 -120 25 0 c23 0 25 3 25 50 0 51 5 56 48 51 6 -1 12 7
12 19 0 16 -6 20 -30 20 -27 0 -30 3 -30 30 0 29 2 30 44 30 39 0 44 2 39 20
-5 17 -14 20 -69 20 l-64 0 0 -120z"/>
<path d="M1610 1270 l0 -120 25 0 25 0 0 120 0 120 -25 0 -25 0 0 -120z"/>
<path d="M1716 1375 c-11 -29 -6 -35 24 -28 l30 6 0 -102 0 -101 28 0 27 0 0
97 0 98 32 -2 c30 -3 32 -1 24 20 -7 20 -16 22 -83 25 -62 2 -77 0 -82 -13z"/>
<path d="M1410 925 l0 -115 60 0 c48 0 61 4 70 19 15 29 14 29 -35 23 l-45 -5
0 97 c0 96 0 96 -25 96 l-25 0 0 -115z"/>
<path d="M1597 1022 c-13 -14 -17 -38 -17 -94 0 -65 3 -77 23 -96 33 -31 96
-30 125 1 19 20 22 35 22 99 0 92 -13 108 -87 108 -36 0 -55 -5 -66 -18z m91
-21 c9 -5 12 -28 10 -77 l-3 -69 -30 0 c-30 0 -30 0 -33 64 -2 35 -1 70 2 77
6 16 34 18 54 5z"/>
<path d="M1842 1017 c-18 -19 -22 -35 -22 -93 0 -61 3 -74 23 -92 33 -31 96
-30 125 1 27 28 30 92 6 101 -25 10 -39 -6 -39 -44 0 -32 -2 -35 -30 -35 l-30
0 -3 67 c-3 59 -1 68 18 78 12 6 35 8 52 5 26 -6 30 -5 25 10 -4 9 -7 19 -7
21 0 2 -22 4 -48 4 -38 0 -53 -5 -70 -23z"/>
</g>
</svg>
