<?xml version="1.0" standalone="no"?>
<!DOCTYPE svg PUBLIC "-//W3C//DTD SVG 20010904//EN"
 "http://www.w3.org/TR/2001/REC-SVG-20010904/DTD/svg10.dtd">
<svg version="1.0" xmlns="http://www.w3.org/2000/svg"
 width="220.000000pt" height="220.000000pt" viewBox="0 0 220.000000 220.000000"
 preserveAspectRatio="xMidYMid meet">
<metadata>
Created by potrace 1.14, written by Peter Selinger 2001-2017
</metadata>
<g transform="translate(0.000000,220.000000) scale(0.100000,-0.100000)"
fill="#000000" stroke="none">
<path d="M392 1377 c-12 -7 -29 -22 -37 -34 -12 -18 -22 -21 -50 -16 -30 5
-39 1 -70 -30 l-35 -35 0 -156 c0 -203 15 -236 107 -236 28 0 42 -6 51 -21 19
-30 70 -49 103 -37 47 16 64 44 69 117 l5 66 151 3 151 3 6 -67 c4 -54 10 -71
33 -95 39 -41 95 -41 134 1 21 23 37 30 65 30 88 0 105 38 105 232 0 125 -3
147 -20 176 -22 36 -62 56 -98 49 -16 -3 -32 5 -56 29 -40 40 -74 44 -116 14
-25 -18 -53 -73 -49 -96 1 -5 1 -24 0 -41 l-1 -33 -155 0 -155 0 0 66 c0 61
-2 68 -31 95 -34 31 -69 37 -107 16z m78 -73 c6 -14 10 -111 10 -215 0 -176
-1 -190 -20 -209 -16 -16 -25 -18 -40 -10 -19 10 -20 22 -20 223 0 152 3 216
12 225 20 20 48 14 58 -14z m498 14 c9 -9 12 -73 12 -225 0 -201 -1 -213 -20
-223 -15 -8 -24 -6 -40 10 -19 19 -20 33 -20 216 0 115 4 203 10 215 12 21 40
25 58 7z m-638 -67 c5 -11 10 -81 10 -157 0 -114 -3 -141 -17 -156 -20 -22
-27 -22 -47 -2 -13 13 -16 42 -16 163 0 152 5 171 42 171 9 0 22 -9 28 -19z
m778 7 c8 -8 12 -57 12 -157 0 -120 -3 -147 -17 -163 -20 -22 -27 -22 -47 -2
-13 13 -16 42 -16 163 0 150 5 171 40 171 9 0 21 -5 28 -12z m-268 -163 l0
-46 -152 3 -153 3 -3 43 -3 42 155 0 156 0 0 -45z"/>
<path d="M1440 1270 l0 -120 25 0 c23 0 25 3 25 50 0 49 1 50 30 50 23 0 30 4
30 20 0 16 -7 20 -30 20 -27 0 -30 3 -30 31 0 31 1 31 45 27 46 -3 49 -1 39
26 -5 12 -21 16 -70 16 l-64 0 0 -120z"/>
<path d="M1716 1375 c-11 -28 -7 -34 22 -32 l27 2 3 -97 3 -98 27 0 27 0 0 97
0 98 32 -2 c30 -3 32 -1 24 20 -7 20 -16 22 -83 25 -62 2 -77 0 -82 -13z"/>
<path d="M1410 930 l0 -120 65 0 c36 0 65 4 65 9 0 5 3 16 6 24 4 12 -3 14
-40 10 l-46 -6 0 102 0 101 -25 0 -25 0 0 -120z"/>
<path d="M1602 1027 c-19 -20 -22 -35 -22 -104 0 -96 12 -113 82 -113 69 0 88
26 88 122 0 71 -2 78 -26 97 -37 29 -94 28 -122 -2z"/>
<path d="M1846 1029 c-24 -19 -26 -26 -26 -98 0 -68 3 -80 23 -99 16 -15 36
-22 63 -22 55 0 84 31 84 88 0 39 -2 42 -28 42 -27 0 -29 -2 -28 -42 1 -41 0
-43 -29 -43 -30 0 -30 0 -33 65 -4 75 8 89 63 83 24 -2 35 1 35 10 0 40 -79
51 -124 16z"/>
</g>
</svg>
